<?xml version="1.0" encoding="UTF-8"?>
<svg width="36px" height="36px" viewBox="0 0 36 36" version="1.1" xmlns="http://www.w3.org/2000/svg" xmlns:xlink="http://www.w3.org/1999/xlink">
    <!-- Generator: Sketch 42 (36781) - http://www.bohemiancoding.com/sketch -->
    <title>file_upload</title>
    <desc>Created with Sketch.</desc>
    <defs></defs>
    <g id="Page-1" stroke="none" stroke-width="1" fill="none" fill-rule="evenodd">
        <path d="M27,5.25 L11.44,5.25 C11.1794895,5.25592099 10.935576,5.12253077 10.8,4.9 L8.64,1.5 L1.5,1.5 L1.5,25.38 C1.83100061,26.3399512 2.73458499,26.9841779 3.75,26.9841779 C4.76541501,26.9841779 5.66899939,26.3399512 6,25.38 L6,8.25 C6.00538581,7.83803794 6.33803794,7.50538581 6.75,7.5 L27,7.5 L27,5.25 Z M30.64,14.25 C30.2676791,14.1904961 29.9952751,13.8670162 30,13.49 L30,9 L7.5,9 L7.5,25.48 C7.50491733,25.5398992 7.50491733,25.6001008 7.5,25.66 C7.37409123,26.1452605 7.15315964,26.6007194 6.85,27 L12.77,27 C12.9877824,27.0005486 13.1945717,27.0957342 13.336619,27.2608162 C13.4786663,27.4258982 13.5419422,27.6445721 13.51,27.86 C13.4504961,28.2323209 13.1270162,28.5047249 12.75,28.5 L3.75,28.5 L3.57,28.5 C1.89016153,28.4753671 0.435307989,27.3278769 0.02,25.7 C0.0150826658,25.6401008 0.0150826658,25.5798992 0.02,25.52 L0.02,0.75 C0.0253858123,0.338037936 0.358037936,0.00538581231 0.77,3.64403895e-14 L9.08,3.64403895e-14 C9.3340285,-0.000672515853 9.57113149,0.127287828 9.71,0.34 L11.87,3.75 L27.77,3.75 C28.1819621,3.75538581 28.5146142,4.08803794 28.52,4.5 L28.52,7.5 L30.77,7.5 C31.1819621,7.50538581 31.5146142,7.83803794 31.52,8.25 L31.52,13.5 C31.5204002,13.7218891 31.422527,13.9325663 31.2527012,14.0753744 C31.0828754,14.2181824 30.8585308,14.2784612 30.64,14.24 L30.64,14.25 Z M29,26 L27,24 L27,30.38 C27,30.7942136 26.6642136,31.13 26.25,31.13 C25.8357864,31.13 25.5,30.7942136 25.5,30.38 L25.5,24 L23.5,26 C23.2044902,26.2753589 22.7439903,26.2672339 22.4583782,25.9816218 C22.1727661,25.6960097 22.1646411,25.2355098 22.44,24.94 L25.72,21.67 C26.0029071,21.410703 26.4370929,21.410703 26.72,21.67 L30,24.94 C30.1880897,25.2301013 30.1534951,25.6111907 29.9162409,25.8626801 C29.6789867,26.1141696 29.3005569,26.170886 29,26 Z M26.26,18 C21.7036508,18 18.01,21.6936508 18.01,26.25 C18.01,30.8063492 21.7036508,34.5 26.26,34.5 C30.8163492,34.5 34.51,30.8063492 34.51,26.25 C34.5100016,24.0602302 33.6394351,21.9602936 32.0900965,20.4128307 C30.5407579,18.8653678 28.4397681,17.9973457 26.25,18 L26.26,18 Z M26.26,36 C20.8752237,36 16.51,31.6347763 16.51,26.25 C16.51,20.8652237 20.8752237,16.5 26.26,16.5 C31.6447763,16.5 36.01,20.8652237 36.01,26.25 C36.0044812,31.6363935 31.6363963,36.0000028 26.25,36 L26.26,36 Z" id="file_upload" fill="#CCCCCC"></path>
    </g>
</svg>