<?xml version="1.0" encoding="UTF-8"?>
<svg width="28px" height="28px" viewBox="0 0 28 28" version="1.1" xmlns="http://www.w3.org/2000/svg" xmlns:xlink="http://www.w3.org/1999/xlink">
    <!-- Generator: Sketch 42 (36781) - http://www.bohemiancoding.com/sketch -->
    <title>logout</title>
    <desc>Created with Sketch.</desc>
    <defs></defs>
    <g id="Page-1" stroke="none" stroke-width="1" fill="none" fill-rule="evenodd">
        <path d="M18.1,5 L16.9,5 C16.7,5 16.3,4.7 16.3,4.4 L16.3,2.3 L2.3,2.3 L2.3,25.6 L16.3,25.6 L16.3,23.5 C16.3,23.2 16.6,22.9 16.9,22.9 L18.1,22.9 C18.4,22.9 18.7,23.2 18.7,23.5 L18.7,25.6 C18.7,26.9 17.7,27.9 16.4,27.9 L2.4,27.9 C1.1,27.9 0.1,26.9 0.1,25.6 L0.1,2.3 C0.1,1 1.1,0 2.4,0 L16.4,0 C17.7,0 18.7,1 18.7,2.3 L18.7,4.4 C18.7,4.5 18.4,5 18.1,5 Z M27.8,14.4 L20.8,20.8 C20.7,20.9 20.5,21 20.4,21 L20.2,21 C20,20.9 19.9,20.7 19.9,20.5 L19.9,19.3 C19.9,19.1 20,19 20.1,18.9 L24.2,15.2 L7.7,15.2 C7.4,15.2 7.1,14.9 7.1,14.6 L7.1,13.4 C7.1,13.1 7.4,12.8 7.7,12.8 L24.2,12.8 L20.1,9.1 C20,9 19.9,8.8 19.9,8.7 L19.9,7.5 C19.9,7.3 20,7.1 20.2,7 C20.4,6.9 20.7,7 20.8,7.1 L27.8,13.5 C27.9,13.6 28,13.8 28,13.9 C28,14 27.9,14.3 27.8,14.4 Z" id="logout" fill="#F6F6F6"></path>
    </g>
</svg>