<?xml version="1.0" encoding="UTF-8"?>
<svg width="14px" height="12px" viewBox="0 0 14 12" version="1.1" xmlns="http://www.w3.org/2000/svg" xmlns:xlink="http://www.w3.org/1999/xlink">
    <!-- Generator: Sketch 42 (36781) - http://www.bohemiancoding.com/sketch -->
    <title>search_arrow</title>
    <desc>Created with Sketch.</desc>
    <defs></defs>
    <g id="Page-1" stroke="none" stroke-width="1" fill="none" fill-rule="evenodd">
        <path d="M13.8,6.5 C14,6.3 14,6.1 14,6 C14,5.9 13.9,5.6 13.8,5.5 L9,0.8 C8.8,0.6 8.7,0.6 8.4,0.6 C8.1,0.6 8,0.7 7.8,0.8 L6.7,1.9 C6.5,2.1 6.5,2.2 6.5,2.4 C6.5,2.6 6.6,2.8 6.7,2.9 L7.5,3.7 C7.7,3.9 7.6,4.4 7.2,4.4 L0.8,4.4 C0.3,4.4 0,4.7 0,5.2 L0,6.8 C0,7.3 0.3,7.6 0.8,7.6 L7.2,7.6 C7.5,7.6 7.8,8 7.5,8.3 L6.7,9.1 C6.5,9.3 6.5,9.4 6.5,9.6 C6.5,9.8 6.6,10 6.7,10.1 L7.8,11.2 C8,11.4 8.1,11.4 8.4,11.4 C8.6,11.4 8.8,11.3 9,11.2 L13.8,6.5 Z" id="search_arrow" fill="#2394BC" fill-rule="nonzero"></path>
    </g>
</svg>