<?xml version="1.0" encoding="UTF-8"?>
<svg width="25px" height="26px" viewBox="0 0 25 26" version="1.1" xmlns="http://www.w3.org/2000/svg" xmlns:xlink="http://www.w3.org/1999/xlink">
    <!-- Generator: Sketch 42 (36781) - http://www.bohemiancoding.com/sketch -->
    <title>search</title>
    <desc>Created with Sketch.</desc>
    <defs></defs>
    <g id="Page-1" stroke="none" stroke-width="1" fill="none" fill-rule="evenodd">
        <path d="M11.1,20.4 C8.8,20.4 6.5,19.5 4.9,17.9 C1.4,14.4 1.4,8.9 4.9,5.4 C6.5,3.8 8.8,2.9 11.1,2.9 C13.4,2.9 15.7,3.8 17.3,5.5 C18.9,7.1 19.8,9.4 19.8,11.7 C19.8,14 18.9,16.3 17.2,17.9 C15.6,19.5 13.4,20.4 11.1,20.4 Z M24.7,23.6 L20.9,19.8 C20.6,19.5 20.3,19.4 20,19.5 L19.5,19 C21.3,17 22.3,14.4 22.3,11.7 C22.3,8.7 21.1,5.9 19.1,3.9 C17,1.8 14.2,0.6 11.2,0.6 C8.2,0.6 5.4,1.8 3.4,3.8 C-0.9,8.1 -0.9,15.1 3.4,19.5 C5.5,21.6 8.3,22.7 11.2,22.7 C13.9,22.7 16.5,21.7 18.5,19.9 L19,20.4 C19,20.7 19.1,21.1 19.3,21.3 L23.1,25.1 C23.3,25.3 23.6,25.4 23.9,25.4 C24.2,25.4 24.5,25.3 24.7,25.1 C25.1,24.7 25.1,24 24.7,23.6 Z" id="search" fill="#000000" fill-rule="nonzero"></path>
    </g>
</svg>