<?xml version="1.0" encoding="UTF-8"?>
<svg width="19px" height="22px" viewBox="0 0 19 22" version="1.1" xmlns="http://www.w3.org/2000/svg" xmlns:xlink="http://www.w3.org/1999/xlink">
    <!-- Generator: Sketch 42 (36781) - http://www.bohemiancoding.com/sketch -->
    <title>type_delete</title>
    <desc>Created with Sketch.</desc>
    <defs></defs>
    <g id="Page-1" stroke="none" stroke-width="1" fill="none" fill-rule="evenodd">
        <path d="M5.8,19.3 C5.5,19.3 5.2,19 5.2,18.7 L5.2,12 C5.2,11.7 5.5,11.4 5.8,11.4 C6.1,11.4 6.4,11.7 6.4,12 L6.4,18.7 C6.4,19 6.1,19.3 5.8,19.3 Z M9,19.3 C8.7,19.3 8.4,19 8.4,18.7 L8.4,12 C8.4,11.7 8.7,11.4 9,11.4 C9.3,11.4 9.6,11.7 9.6,12 L9.6,18.7 C9.6,19 9.3,19.3 9,19.3 Z M12.2,19.3 C11.9,19.3 11.6,19 11.6,18.7 L11.6,12 C11.6,11.7 11.9,11.4 12.2,11.4 C12.5,11.4 12.8,11.7 12.8,12 L12.8,18.7 C12.8,19 12.6,19.3 12.2,19.3 Z M16.8,5.2 C16.8,4.5 16.2,3.9 15.5,3.9 L2.6,3.9 C1.9,3.9 1.3,4.5 1.3,5.2 L1.3,5.3 C1.3,6 1.9,6.6 2.6,6.6 L15.5,6.6 C16.2,6.6 16.8,6 16.8,5.3 L16.8,5.2 Z M9,1.2 C8.1,1.2 7.4,1.8 7.2,2.6 L10.7,2.6 C10.6,1.8 9.9,1.2 9,1.2 Z M2.8,19.5 C2.8,20.2 3.4,20.8 4.1,20.8 L13.8,20.8 C14.5,20.8 15.1,20.2 15.1,19.5 L15.1,7.8 L2.7,7.8 L2.7,19.5 L2.8,19.5 Z M16.4,7.6 L16.4,19.5 C16.4,20.9 15.3,22 13.9,22 L4.2,22 C2.8,22 1.7,20.9 1.7,19.5 L1.7,7.6 C0.8,7.2 0.1,6.3 0.1,5.3 L0.1,5.2 C0.1,3.8 1.2,2.7 2.6,2.7 L6.1,2.7 C6.3,1.2 7.6,0.1 9.1,0.1 C10.6,0.1 11.9,1.3 12.1,2.7 L15.6,2.7 C17,2.7 18.1,3.8 18.1,5.2 L18.1,5.3 C18,6.3 17.3,7.2 16.4,7.6 Z" id="type_delete" fill="#CC2020"></path>
    </g>
</svg>