<?xml version="1.0" encoding="UTF-8"?>
<svg width="22px" height="21px" viewBox="0 0 22 21" version="1.1" xmlns="http://www.w3.org/2000/svg" xmlns:xlink="http://www.w3.org/1999/xlink">
    <!-- Generator: Sketch 42 (36781) - http://www.bohemiancoding.com/sketch -->
    <title>type_edit</title>
    <desc>Created with Sketch.</desc>
    <defs></defs>
    <g id="Page-1" stroke="none" stroke-width="1" fill="none" fill-rule="evenodd">
        <path d="M9.7,4.9 L2.6,4.9 C2.3,4.9 2,5.2 2,5.5 L2,18.9 C2,19.2 2.3,19.5 2.6,19.5 L15.9,19.5 C16.2,19.5 16.5,19.2 16.5,18.9 L16.5,12.1 C16.5,11.8 16.7,11.6 17,11.6 C17.3,11.6 17.5,11.8 17.5,12.1 L17.5,18.9 C17.5,19.8 16.8,20.5 15.9,20.5 L2.5,20.5 C1.6,20.5 0.9,19.8 0.9,18.9 L0.9,5.5 C0.9,4.6 1.6,3.9 2.5,3.9 L9.6,3.9 C9.9,3.9 10.1,4.1 10.1,4.4 C10.2,4.7 10,4.9 9.7,4.9 Z M20,4.5 C20,4.3 19.9,4.2 19.9,4 C19.4,2.9 18.6,2.1 17.5,1.6 C17.4,1.5 17.1,1.5 16.9,1.5 L16.8,1.5 L16.8,1.5 C16.8,1.5 16.7,1.5 16.7,1.6 L11.2,7.2 L9.3,9.1 L7.2,11.2 L7.1,11.3 L6.3,14.8 L6.2,15.3 L6.8,15.2 L10.2,14.5 C10.3,14.5 10.3,14.5 10.4,14.4 L20,4.8 C20.1,4.8 20.1,4.7 20.1,4.6 L20,4.5 Z M20.6,5.6 L11,15.2 C10.8,15.4 10.6,15.5 10.3,15.6 L6.9,16.3 L6.2,16.5 L6,16.5 C5.8,16.5 5.5,16.4 5.4,16.2 C5.2,16 5.1,15.7 5.2,15.3 L5.3,14.6 C5.6,13.4 5.8,12.2 6.1,11.1 C6.1,10.9 6.3,10.7 6.4,10.5 C7.1,9.8 7.8,9.1 8.5,8.3 L10.4,6.4 L15.9,0.9 C16.2,0.6 16.5,0.5 16.9,0.5 L17,0.5 C17.3,0.5 17.6,0.6 17.8,0.7 C19.2,1.3 20.2,2.2 20.8,3.6 C20.9,3.8 20.9,4.1 21,4.3 L21.1,4.5 L21.1,4.7 C21,5 20.8,5.3 20.6,5.6 Z" id="type_edit" fill="#000000"></path>
    </g>
</svg>